<?xml version="1.0" encoding="iso-8859-1"?>
<!-- Generator: Adobe Illustrator 19.0.0, SVG Export Plug-In . SVG Version: 6.00 Build 0)  -->
<svg version="1.1" id="Capa_1" xmlns="http://www.w3.org/2000/svg" xmlns:xlink="http://www.w3.org/1999/xlink" x="0px" y="0px"
	 viewBox="0 0 512.001 512.001" style="enable-background:new 0 0 512.001 512.001;" xml:space="preserve">
<g>
	<g>
		<path d="M257.297,0.004c-0.018,0-0.035,0-0.053-0.001C257.162,0.003,257.081,0,257,0c-0.012,0-0.024,0-0.036,0
			c-0.032,0-0.065,0.001-0.097,0.001C115.786,0.073,0,114.252,0,255c0,34.416,6.855,67.932,20.376,99.618
			c26.177,61.348,75.527,110.772,137.005,137.005c31.682,13.519,65.194,20.375,99.605,20.376c0.009,0,0.018,0.002,0.027,0.002
			c0.023,0,0.047-0.002,0.07-0.003C398.634,511.953,512,395.326,512,255C512,114.274,398.242,0.163,257.297,0.004z M207.317,35.443
			C181.736,59.695,160.835,88.099,145.096,120H75.515C107.426,77.96,153.837,47.325,207.317,35.443z M56.286,149.8h75.991
			c-10.493,28.747-16.697,59.387-18.298,90.2H30.517C32.674,207.672,41.749,176.993,56.286,149.8z M56.851,362
			c-14.89-27.74-24.173-58.913-26.342-92h83.368c1.432,31.496,7.682,62.631,18.402,92H56.851z M76.129,392h68.967
			c15.709,31.842,36.581,60.236,62.154,84.494C154.137,464.571,108.007,433.983,76.129,392z M143.921,270h98.078v92h-77.373
			C152.648,333.142,145.53,302.081,143.921,270z M242.001,467.115C216.497,445.88,195.351,420.38,179.27,392h62.73V467.115z
			 M242.001,240h-97.979c1.799-31.373,8.876-61.742,20.606-90h77.373V240z M242.001,120h-62.729
			c16.08-28.38,37.226-53.88,62.729-75.116V120z M455.945,150c14.41,27.193,23.404,57.672,25.543,90H400.02
			c-1.601-30.813-7.805-61.253-18.298-90H455.945z M436.887,120h-67.982c-15.697-31.817-36.546-60.189-62.088-84.433
			C359.585,47.541,405.369,78.11,436.887,120z M272.001,44.89c25.503,21.236,46.657,46.73,62.737,75.11h-62.737V44.89z M272,150
			h77.392c11.728,28.256,18.789,58.629,20.588,90H272V150z M370.088,269.8c-1.608,32.079-8.719,63.344-20.696,92.2h-77.392v-92.2
			H370.088z M272.001,467.11V391.8h62.737C318.658,420.18,297.504,445.873,272.001,467.11z M306.885,476.368
			c25.491-24.21,46.326-52.757,62.019-84.568h67.373C404.796,433.63,359.29,464.353,306.885,476.368z M381.723,362
			c10.72-29.369,16.97-60.704,18.402-92.2h81.372c-2.15,33.087-11.351,64.46-26.11,92.2H381.723z"/>
	</g>
</g>
<g>
</g>
<g>
</g>
<g>
</g>
<g>
</g>
<g>
</g>
<g>
</g>
<g>
</g>
<g>
</g>
<g>
</g>
<g>
</g>
<g>
</g>
<g>
</g>
<g>
</g>
<g>
</g>
<g>
</g>
</svg>
